<svg width="24" height="24" viewBox="0 0 24 24" fill="none" xmlns="http://www.w3.org/2000/svg">
<path d="M17.2516 18C14.5516 18 13.4791 14.868 12.4418 11.8395C11.4593 8.9685 10.4416 6 8.25156 6C7.74012 6.03013 7.24922 6.21185 6.84144 6.52199C6.43365 6.83214 6.12743 7.25668 5.96181 7.7415L4.53906 7.263C4.57731 7.1505 5.49231 4.5 8.25156 4.5C11.5141 4.5 12.7606 8.14125 13.8616 11.3535C14.7683 14.0002 15.6241 16.5 17.2516 16.5C17.7629 16.4699 18.2537 16.2883 18.6615 15.9783C19.0693 15.6683 19.3756 15.2439 19.5413 14.7593L20.9633 15.237C20.9258 15.3495 20.0108 18 17.2516 18Z" fill="#D9D9D9"/>
<path d="M3 21V12.75H4.5V11.25H3V1.5H1.5V21C1.5 21.3978 1.65804 21.7794 1.93934 22.0607C2.22064 22.342 2.60218 22.5 3 22.5H22.5V21H3Z" fill="#D9D9D9"/>
<path d="M6 11.25H7.5V12.75H6V11.25ZM9 11.25H10.5V12.75H9V11.25ZM15 11.25H16.5V12.75H15V11.25ZM18 11.25H19.5V12.75H18V11.25ZM21 11.25H22.5V12.75H21V11.25Z" fill="#D9D9D9"/>
</svg>
