<svg width="38" height="38" viewBox="0 0 38 38" fill="none" xmlns="http://www.w3.org/2000/svg">
<path d="M35.8042 23.2931H31.0935C30.4493 23.4541 29.1367 23.2448 29.0401 21.1189C28.9435 18.993 28.9998 14.0327 29.0401 11.8182C29.1609 10.7714 28.4603 8.82267 24.6917 9.40245H12.3713C10.8816 9.12061 8.62698 9.40245 9.47239 17.2537V26.4336C9.27108 27.1583 9.81062 28.6319 13.5792 28.7285C17.3478 28.8252 20.6252 28.7688 21.7928 28.7285C22.8396 28.648 23.967 28.7285 23.967 33.1977C23.967 37.1837 24.6917 37.612 16.8405 37.1837C11.5258 36.8938 11.0829 37.0629 11.5258 37.1837C10.9621 37.1837 9.88309 36.6281 10.0764 34.4056V30.178C9.87504 29.4533 8.77184 28.0521 5.96956 28.2454H2.4667C1.94329 28.1649 0.920615 27.4482 1.01725 25.2257C1.11388 23.0032 1.05751 15.3613 1.01725 11.8182C0.89645 11.013 1.35543 9.40245 4.15771 9.40245H8.14372C8.74766 9.28166 9.9797 8.60525 10.0763 6.86591C10.173 5.12656 10.1166 3.24226 10.0763 2.51754C9.95554 1.83307 10.2937 0.488297 12.6129 0.584927C14.932 0.681558 22.7591 0.705724 26.3827 0.705729C27.3088 0.544678 29.0642 1.09225 28.6777 4.57095V7.71144C28.879 8.43616 29.7648 9.86146 31.6974 9.76483C33.63 9.6682 35.4016 9.72457 36.0458 9.76483C36.69 9.68431 37.9059 10.5379 37.616 14.5964V21.1189C37.5758 21.8839 37.1571 23.3897 35.8042 23.2931Z" fill="#33A1FD"/>
<path d="M4.15771 9.40245C1.35543 9.40245 0.89645 11.013 1.01725 11.8182C1.05751 15.3613 1.11388 23.0032 1.01725 25.2257C0.920615 27.4482 1.94329 28.1649 2.4667 28.2454H5.96956C8.77184 28.0521 9.87504 29.4533 10.0764 30.178V34.4056C9.88309 36.6281 10.9621 37.1837 11.5258 37.1837C11.0829 37.0629 11.5258 36.8938 16.8405 37.1837C24.6917 37.612 23.967 37.1837 23.967 33.1977C23.967 28.7285 22.8396 28.648 21.7928 28.7285C20.6252 28.7688 17.3478 28.8252 13.5792 28.7285C9.81062 28.6319 9.27108 27.1583 9.47239 26.4336V17.2537C8.62698 9.40245 10.8816 9.12061 12.3713 9.40245H24.6917C28.4603 8.82267 29.1609 10.7714 29.0401 11.8182C28.9998 14.0327 28.9435 18.993 29.0401 21.1189C29.1367 23.2448 30.4493 23.4541 31.0935 23.2931H35.8042C37.1571 23.3897 37.5758 21.8839 37.616 21.1189V14.5964C37.9059 10.5379 36.69 9.68431 36.0458 9.76483C35.4016 9.72457 33.63 9.6682 31.6974 9.76483C29.7648 9.86146 28.879 8.43616 28.6777 7.71144V4.57095C29.0642 1.09225 27.3088 0.544678 26.3827 0.705729C22.7591 0.705724 14.932 0.681558 12.6129 0.584927C10.2937 0.488297 9.95554 1.83307 10.0763 2.51754C10.1166 3.24226 10.173 5.12656 10.0763 6.86591C9.9797 8.60525 8.74766 9.28166 8.14372 9.40245M4.15771 9.40245C6.95999 9.40245 7.98267 9.40245 8.14372 9.40245M4.15771 9.40245H8.14372" stroke="#33A1FD" stroke-width="0.241576"/>
<path d="M16.5672 14.404H21.8708C22.6744 14.4442 24.2092 15.0549 23.9199 17.1763V20.3102C24.5226 22.9218 25.969 26.5781 30.7905 28.5067H35.7324C36.3753 28.6674 37.661 28.7477 37.661 31.8817V35.2567C37.4199 35.9799 36.6485 37.3781 35.4914 37.1852H30.7905C30.1878 37.1451 28.9583 36.7031 28.8619 35.2567C28.7655 33.8102 28.8217 31.8415 28.8619 31.0379C28.2994 28.9085 25.8003 24.4085 20.3039 23.4442H16.0851C15.603 23.3638 14.6387 22.8174 14.6387 21.2745V16.212C14.6387 15.6093 15.0244 14.404 16.5672 14.404Z" fill="#33A1FD"/>
<path d="M37.661 31.8817C37.661 28.7477 36.3753 28.6674 35.7324 28.5067H30.7905C25.969 26.5781 24.5226 22.9218 23.9199 20.3102V17.1763C24.2092 15.0549 22.6744 14.4442 21.8708 14.404H16.5672C15.0244 14.404 14.6387 15.6093 14.6387 16.212M37.661 31.8817C37.661 34.196 37.661 35.096 37.661 35.2567M37.661 31.8817V35.2567M37.661 35.2567C37.4199 35.9799 36.6485 37.3781 35.4914 37.1852H30.7905C30.1878 37.1451 28.9583 36.7031 28.8619 35.2567C28.7655 33.8102 28.8217 31.8415 28.8619 31.0379C28.2994 28.9085 25.8003 24.4085 20.3039 23.4442H16.0851C15.603 23.3638 14.6387 22.8174 14.6387 21.2745M14.6387 21.2745C14.6387 19.7317 14.6387 17.2567 14.6387 16.212M14.6387 21.2745V16.212" stroke="#33A1FD" stroke-width="0.241071"/>
</svg>
